<svg xmlns="http://www.w3.org/2000/svg" width="40" height="40" viewBox="0 0 40 40">
  <defs>
    <style>
      .cls-1 {
        fill: #05255f;
      }
    </style>
  </defs>
  <path id="_" data-name="search" class="cls-1" d="M24.32,25.951a10.952,10.952,0,0,1-7.552,3.139,9.63,9.63,0,0,1-7.552-3.139A10.686,10.686,0,0,1,6.1,18.34a10.542,10.542,0,0,1,3.115-7.568A9.966,9.966,0,0,1,16.768,7.59a10.4,10.4,0,0,1,7.552,3.182,10.358,10.358,0,0,1,3.115,7.568A10.135,10.135,0,0,1,24.32,25.951ZM38.741,36.142l-8.149-8.213a16.591,16.591,0,0,0,2.944-9.589A18.236,18.236,0,0,0,32.213,11.8a14.993,14.993,0,0,0-3.584-5.418A19.935,19.935,0,0,0,23.3,2.774a14.351,14.351,0,0,0-6.528-1.333A18.185,18.185,0,0,0,10.24,2.774,15.745,15.745,0,0,0,4.907,6.386,17.214,17.214,0,0,0,0,18.34a15.639,15.639,0,0,0,1.323,6.579,18.069,18.069,0,0,0,3.584,5.375,16.27,16.27,0,0,0,5.333,3.612,16.415,16.415,0,0,0,6.528,1.333,16.286,16.286,0,0,0,9.515-2.967l8.149,8.213a2.764,2.764,0,0,0,2.091.9,3.045,3.045,0,0,0,2.176-.9,2.884,2.884,0,0,0,.939-2.15,3,3,0,0,0-.9-2.193h0Z" transform="translate(0 -1.438)"/>
</svg>
